Coordinates
version=1
nRows=14
nColumns=40
inDegrees=yes

Units are S.I. units (second, meters, Newtons, ...)
Angles are in degrees.

endheader
time	pelvis_tilt	pelvis_list	pelvis_rotation	pelvis_tx	pelvis_ty	pelvis_tz	hip_flexion_r	hip_adduction_r	hip_rotation_r	knee_angle_r	knee_angle_r_beta	ankle_angle_r	subtalar_angle_r	mtp_angle_r	hip_flexion_l	hip_adduction_l	hip_rotation_l	knee_angle_l	knee_angle_l_beta	ankle_angle_l	subtalar_angle_l	mtp_angle_l	lumbar_extension	lumbar_bending	lumbar_rotation	arm_flex_r	arm_add_r	arm_rot_r	elbow_flex_r	pro_sup_r	wrist_flex_r	wrist_dev_r	arm_flex_l	arm_add_l	arm_rot_l	elbow_flex_l	pro_sup_l	wrist_flex_l	wrist_dev_l
      0.41000000	     -3.45935527	      5.65319459	     -1.10622497	     -0.84668720	      0.92604304	      1.57540761	    -14.83262806	    -10.90620735	    -22.05083371	    -19.50645548	     -0.34045187	      1.98270793	     13.29352607	    -14.19650779	     25.98366305	     -6.57169063	     19.59208074	    -15.89135331	     -0.27735644	      0.33983224	      5.87150151	      5.90038066	     -0.68081744	     -5.07280957	     10.43912900	      3.11488825	    -15.96357558	    -20.97343666	     38.69014108	     89.95437384	      0.00000000	      0.00000000	    -24.41572004	     16.76820249	     24.13346524	      4.93645167	     89.95437384	      0.00000000	      0.00000000
      0.42000000	     -3.40720198	      6.75485093	     -1.15307077	     -0.83194763	      0.92711191	      1.57324592	    -14.63136261	    -12.97521192	    -22.80897015	    -21.61924156	     -0.37732695	      0.12012193	     14.26095099	    -13.90634073	     25.15076712	     -8.05918135	     19.02010249	    -15.35898669	     -0.26806489	     -0.39837905	      8.97386292	      5.39410266	     -0.31713609	     -6.26805884	     10.41466177	      2.48594689	    -15.53145023	    -21.20703398	     38.63975488	     89.95437384	      0.00000000	      0.00000000	    -24.38366495	     16.40806110	     24.83696271	      4.93354950	     89.95437384	      0.00000000	      0.00000000
      0.43000000	     -3.65014416	      6.77870322	     -0.93028509	     -0.81801729	      0.92777643	      1.57140703	    -13.87067020	    -13.57287151	    -22.71285966	    -23.76811351	     -0.41483184	     -2.62359438	     13.40993580	    -12.98876504	     25.25352875	     -8.05136063	     18.64701440	    -16.78361507	     -0.29292934	     -0.19608107	      9.14306712	      4.96896964	      0.29928849	     -6.25661071	     10.04438863	      1.96446570	    -15.27992987	    -21.10065651	     38.44125261	     89.95437384	      0.00000000	      0.00000000	    -24.35467828	     15.88718484	     24.66347870	      5.04098675	     89.95437384	      0.00000000	      0.00000000
      0.44000000	     -4.16326390	      6.92315839	     -0.66821330	     -0.80438570	      0.92815638	      1.56943701	    -12.46074797	    -14.37062818	    -22.54791820	    -26.32346924	     -0.45943121	     -5.97167872	     12.60353161	    -11.90750925	     25.66339984	     -8.33530920	     17.73400953	    -18.18208310	     -0.31733721	      0.23141531	      9.16016743	      4.44536100	      1.14566823	     -6.39589127	      9.71308591	      1.33317805	    -14.97784802	    -21.13329803	     38.26568231	     89.95437384	      0.00000000	      0.00000000	    -24.18070805	     15.40639355	     24.52117823	      5.13009483	     89.95437384	      0.00000000	      0.00000000
      0.45000000	     -5.05075318	      7.31112967	     -0.36082760	     -0.79152301	      0.92816649	      1.56709839	    -10.21141523	    -15.50320133	    -22.10411126	    -29.42063201	     -0.51348690	     -9.16824393	     11.39502416	    -10.66397085	     26.24189646	     -9.21593753	     16.30330571	    -18.80707208	     -0.32824533	      0.10775645	     10.49792725	      3.76471184	      2.34918577	     -6.78877683	      9.38922642	      0.76823094	    -14.59122426	    -21.39714246	     37.93378140	     89.95437384	      0.00000000	      0.00000000	    -23.86994330	     14.91345371	     24.25864660	      5.22981773	     89.95437384	      0.00000000	      0.00000000
      0.46000000	     -5.43464638	      7.53497033	     -0.05991954	     -0.77846494	      0.92899413	      1.56512146	     -8.57749477	    -16.22330758	    -21.27079238	    -31.94081844	     -0.55747245	    -13.37617931	      9.57608594	     -9.35134377	     26.08094300	     -9.80024526	     15.70118252	    -19.36691923	     -0.33801651	      0.60830037	     10.72727188	      3.41538384	      2.91813488	     -7.02751698	      8.90806690	      0.27672833	    -14.31301003	    -21.27618908	     37.60574462	     89.95437384	      0.00000000	      0.00000000	    -23.44920308	     14.40958481	     24.05434544	      5.42112816	     89.95437384	      0.00000000	      0.00000000
      0.47000000	     -5.36622671	      7.46518775	      0.11424034	     -0.76559074	      0.93033468	      1.56416512	     -7.26598261	    -16.44687278	    -19.99225032	    -34.56381238	     -0.60325233	    -16.22774268	      8.54264443	     -8.53173583	     25.27580785	     -9.98124002	     15.01163963	    -19.72525624	     -0.34427067	      1.26393505	     10.79861744	      3.14986855	      2.90352108	     -7.05101137	      8.43744204	     -0.04667047	    -14.02997772	    -21.04703308	     37.14227450	     89.95437384	      0.00000000	      0.00000000	    -22.89684178	     13.94570044	     23.83385970	      5.73615459	     89.95437384	      0.00000000	      0.00000000
      0.48000000	     -6.08414460	      8.02536397	      0.31205692	     -0.75334009	      0.93049106	      1.56226139	     -4.65749265	    -17.36785355	    -18.31024754	    -37.90739836	     -0.66160891	    -18.19945220	      5.46210215	     -7.72522990	     25.16350882	    -11.05340428	     14.07095396	    -19.45743311	     -0.33959627	      1.57094554	     12.27204256	      3.16130898	      3.78002735	     -7.66987235	      7.95211493	     -0.43441640	    -13.68649171	    -20.85011844	     36.77306497	     89.95437384	      0.00000000	      0.00000000	    -22.30938001	     13.44486366	     23.72388962	      5.84706200	     89.95437384	      0.00000000	      0.00000000
      0.49000000	     -6.40302328	      8.39373348	      0.52079916	     -0.74135840	      0.93111046	      1.56054946	     -2.40097714	    -18.13053837	    -17.06708140	    -41.41628821	     -0.72285059	    -18.18218972	      2.96624295	     -7.44988263	     24.58357936	    -11.92614706	     12.83291060	    -19.22811095	     -0.33559385	      1.89151969	     13.36303868	      3.17767650	      4.11906688	     -8.10250477	      7.37414703	     -0.69188113	    -13.45783885	    -20.46206000	     36.29629287	     89.95437384	      0.00000000	      0.00000000	    -21.62183035	     12.93570213	     23.74262326	      6.21803558	     89.95437384	      0.00000000	      0.00000000
      0.50000000	     -6.21760957	      8.70728636	      0.78782323	     -0.72924379	      0.93238782	      1.55910919	     -0.77887302	    -18.83712041	    -16.52789034	    -44.68784561	     -0.77995004	    -17.24588015	      0.32168568	     -7.32499402	     23.44937008	    -12.53978984	     12.31003094	    -19.11278282	     -0.33358099	      2.59781942	     13.06799477	      2.98885825	      3.83816009	     -8.49628605	      6.55691512	     -0.76409867	    -13.20524761	    -20.01091835	     35.76659450	     89.95437384	      0.00000000	      0.00000000	    -20.76707339	     12.46599391	     23.40540387	      6.48088676	     89.95437384	      0.00000000	      0.00000000
      0.51000000	     -6.50043496	      8.89846310	      0.97820658	     -0.71795583	      0.93302725	      1.55770017	      1.69717915	    -19.36377854	    -15.94157652	    -48.05213077	     -0.83866789	    -16.53583379	     -3.74959346	     -6.54674247	     22.91004805	    -13.03313612	     11.71823784	    -18.91709960	     -0.33016567	      2.73127001	     13.95812512	      3.13166484	      4.02385262	     -8.72044851	      5.90413654	     -0.91864210	    -13.00036812	    -19.65712235	     35.27258973	     89.95437384	      0.00000000	      0.00000000	    -19.90324845	     11.94485510	     23.19699402	      7.02406167	     89.95437384	      0.00000000	      0.00000000
      0.52000000	     -6.53305481	      8.93147069	      1.23147627	     -0.70696621	      0.93417599	      1.55645172	      3.85966644	    -19.68081854	    -15.59930927	    -51.11587192	     -0.89214026	    -15.24176014	     -7.47124461	     -5.20679531	     22.10075449	    -13.29431547	     11.26848955	    -18.81158515	     -0.32832410	      3.15337722	     14.11841240	      3.14912446	      3.84066345	     -8.78079182	      5.05557911	     -0.86685633	    -12.79056723	    -19.33985995	     34.62087985	     89.95437384	      0.00000000	      0.00000000	    -18.81244944	     11.44616579	     22.62823597	      7.38680271	     89.95437384	      0.00000000	      0.00000000
      0.53000000	     -6.32226246	      8.87035366	      1.47294195	     -0.69597622	      0.93575958	      1.55541014	      5.65499360	    -19.83868535	    -15.25579201	    -53.67432268	     -0.93679365	    -13.43837736	     -9.90733409	     -4.83202142	     20.91976784	    -13.37883055	     11.08821077	    -18.58862370	     -0.32443269	      3.73180627	     13.55116274	      2.96368485	      3.33538243	     -8.73733461	      4.14432202	     -0.77078467	    -12.57838160	    -19.07829200	     33.96490264	     89.95437384	      0.00000000	      0.00000000	    -17.60297393	     10.97344429	     21.94760954	      7.79042813	     89.95437384	      0.00000000	      0.00000000
      0.54000000	     -6.73455700	      8.78045560	      1.47256540	     -0.68599244	      0.93645089	      1.55467251	      8.61701256	    -19.81892742	    -14.26946540	    -56.30354027	     -0.98268216	    -12.44596930	    -13.44401041	     -2.70634964	     20.56004691	    -13.34810613	     11.10250515	    -18.41620309	     -0.32142338	      3.94054892	     13.55070607	      2.83906761	      3.51802296	     -8.62142167	      3.69450591	     -0.77450603	    -12.36153817	    -19.12327560	     33.28975779	     89.95437384	      0.00000000	      0.00000000	    -16.44783483	     10.56185765	     20.69788933	      8.51904508	     89.95437384	      0.00000000	      0.00000000
